<?xml version="1.0" encoding="UTF-8" standalone="no"?>
<svg
   xmlns:dc="http://purl.org/dc/elements/1.1/"
   xmlns:cc="http://creativecommons.org/ns#"
   xmlns:rdf="http://www.w3.org/1999/02/22-rdf-syntax-ns#"
   xmlns:svg="http://www.w3.org/2000/svg"
   xmlns="http://www.w3.org/2000/svg"
   xmlns:sodipodi="http://sodipodi.sourceforge.net/DTD/sodipodi-0.dtd"
   xmlns:inkscape="http://www.inkscape.org/namespaces/inkscape"
   sodipodi:docname="liquorBottle.svg"
   inkscape:version="1.0 (4035a4f, 2020-05-01)"
   id="svg435"
   version="1.1"
   viewBox="0 0 11.969722 30.90935"
   height="30.909349mm"
   width="11.969721mm">
  <defs
     id="defs429" />
  <sodipodi:namedview
     inkscape:window-maximized="0"
     inkscape:window-y="26"
     inkscape:window-x="0"
     inkscape:window-height="874"
     inkscape:window-width="1440"
     showgrid="false"
     inkscape:document-rotation="0"
     inkscape:current-layer="layer1"
     inkscape:document-units="mm"
     inkscape:cy="104.26288"
     inkscape:cx="-51.586907"
     inkscape:zoom="2.0337149"
     inkscape:pageshadow="2"
     inkscape:pageopacity="0.0"
     borderopacity="1.0"
     bordercolor="#666666"
     pagecolor="#ffffff"
     id="base" />
  <metadata
     id="metadata432">
    <rdf:RDF>
      <cc:Work
         rdf:about="">
        <dc:format>image/svg+xml</dc:format>
        <dc:type
           rdf:resource="http://purl.org/dc/dcmitype/StillImage" />
        <dc:title></dc:title>
      </cc:Work>
    </rdf:RDF>
  </metadata>
  <g
     transform="translate(-99.288528,-96.405481)"
     id="layer1"
     inkscape:groupmode="layer"
     inkscape:label="Layer 1">
    <g
       transform="matrix(0.26458333,0,0,0.26458333,-23.02981,-88.439065)"
       id="g414">
      <path
         id="path216"
         style="opacity:1;fill:#e8963c;fill-opacity:1;fill-rule:nonzero;stroke:none"
         d="M 122.297,126.114 H 71.134003 c -0.884003,0 -1.731003,-0.352 -2.355004,-0.975 -0.624,-0.628 -0.971,-1.474 -0.971,-2.359 0,-0.58 0.091,-58.272996 0,-71.218004 -0.177002,-25.802999 6.467003,-31.051 17.559997,-34.972999 v -37.147999 c 0,-1.839001 1.487,-3.327 3.324997,-3.327 h 17.351997 c 1.837,0 3.324,1.488001 3.324,3.327 v 38.126999 c 10.434,4.979 16.537,10.682999 16.254,34.012001 -0.152,12.934002 0,70.616002 0,71.196002 0.003,0.886 -0.348,1.731 -0.972,2.359 -0.62299,0.628 -1.46999,0.979 -2.35399,0.979 z M 74.461998,119.461 H 118.961 c -0.03,-12.554 -0.123,-56.800001 0.01,-67.959001 C 119.242,29.313 113.848,26.874998 104.913,22.834999 103.725,22.293999 102.717,21 102.717,19.695 V -17.230999 H 92.018997 v 36.206001 c 0,1.430001 -0.916,2.699 -2.273002,3.154 l -0.533997,0.176 c -9.304001,3.094 -14.920998,4.958 -14.750999,29.212 0.077,11.150997 0.021,55.393998 9.99e-4,67.943998 z"
         transform="matrix(0.78231985,0,0,0.77881826,409.26069,717.22792)" />
      <path
         id="path218"
         style="opacity:1;fill:#e8963c;fill-opacity:1;fill-rule:nonzero;stroke:none"
         d="M 90.367996,-7.776 H 106.044 v 6.6529999 H 90.367996 Z"
         transform="matrix(0.78231985,0,0,0.77881826,409.26069,717.22792)" />
      <path
         id="path220"
         style="opacity:1;fill:#e8963c;fill-opacity:1;fill-rule:nonzero;stroke:none"
         d="M 122.303,114.894 H 71.146004 c -1.836998,0 -3.324997,-1.487 -3.324997,-3.326 0,-1.839 1.487999,-3.326 3.324997,-3.326 H 122.302 c 1.839,0 3.326,1.487 3.326,3.326 0,1.839 -1.486,3.326 -3.325,3.326 z"
         transform="matrix(0.78231985,0,0,0.77881826,409.26069,717.22792)" />
      <path
         id="path222"
         style="opacity:1;fill:#e8963c;fill-opacity:1;fill-rule:nonzero;stroke:none"
         d="m 102.276,37.348999 c 0,3.175999 -2.567,5.747002 -5.742995,5.747002 -3.176003,0 -5.742996,-2.57 -5.742996,-5.747002 0,-3.172001 2.567001,-5.743 5.742996,-5.743 3.175995,2e-6 5.742995,2.57 5.742995,5.743 z"
         transform="matrix(0.78231985,0,0,0.77881826,409.26069,717.22792)" />
    </g>
  </g>
</svg>
