<?xml version="1.0" encoding="UTF-8" standalone="no"?>
<svg
   xmlns:dc="http://purl.org/dc/elements/1.1/"
   xmlns:cc="http://creativecommons.org/ns#"
   xmlns:rdf="http://www.w3.org/1999/02/22-rdf-syntax-ns#"
   xmlns:svg="http://www.w3.org/2000/svg"
   xmlns="http://www.w3.org/2000/svg"
   xmlns:sodipodi="http://sodipodi.sourceforge.net/DTD/sodipodi-0.dtd"
   xmlns:inkscape="http://www.inkscape.org/namespaces/inkscape"
   sodipodi:docname="olive.svg"
   inkscape:version="1.0 (4035a4f, 2020-05-01)"
   id="svg435"
   version="1.1"
   viewBox="0 0 18.569625 23.939337"
   height="23.939337mm"
   width="18.569624mm">
  <defs
     id="defs429" />
  <sodipodi:namedview
     inkscape:window-maximized="0"
     inkscape:window-y="26"
     inkscape:window-x="0"
     inkscape:window-height="874"
     inkscape:window-width="1440"
     showgrid="false"
     inkscape:document-rotation="0"
     inkscape:current-layer="layer1"
     inkscape:document-units="mm"
     inkscape:cy="112.74663"
     inkscape:cx="31.951922"
     inkscape:zoom="2.0337149"
     inkscape:pageshadow="2"
     inkscape:pageopacity="0.0"
     borderopacity="1.0"
     bordercolor="#666666"
     pagecolor="#ffffff"
     id="base" />
  <metadata
     id="metadata432">
    <rdf:RDF>
      <cc:Work
         rdf:about="">
        <dc:format>image/svg+xml</dc:format>
        <dc:type
           rdf:resource="http://purl.org/dc/dcmitype/StillImage" />
        <dc:title></dc:title>
      </cc:Work>
    </rdf:RDF>
  </metadata>
  <g
     transform="translate(-77.185547,-94.160822)"
     id="layer1"
     inkscape:groupmode="layer"
     inkscape:label="Layer 1">
    <g
       transform="matrix(0.26458333,0,0,0.26458333,-18.222643,-97.785717)"
       id="g408">
      <path
         id="path160"
         style="opacity:1;fill:#e8963c;fill-opacity:1;fill-rule:nonzero;stroke:none"
         d="m 82.703995,53.056999 c -8e-6,0.836621 -0.160088,1.641403 -0.480255,2.414341 -0.320168,0.772942 -0.776039,1.455204 -1.367615,2.046791 -0.591583,0.59158 -1.27385,1.047451 -2.046791,1.367615 -0.772942,0.320164 -1.577721,0.480251 -2.414337,0.480255 -0.836632,-4e-6 -1.641419,-0.160091 -2.414368,-0.480255 -0.772942,-0.32016 -1.4552,-0.776031 -2.046776,-1.367611 -0.591583,-0.591587 -1.047455,-1.273849 -1.367615,-2.046795 -0.320167,-0.772938 -0.480247,-1.57772 -0.480239,-2.414341 -8e-6,-0.836628 0.160072,-1.641414 0.480239,-2.414356 0.32016,-0.772942 0.776032,-1.455204 1.367615,-2.046783 0.591576,-0.591584 1.273842,-1.047459 2.046784,-1.367623 0.772941,-0.320156 1.577728,-0.480236 2.41436,-0.480236 0.836616,0 1.641403,0.16008 2.414344,0.480236 0.772942,0.320164 1.455201,0.776039 2.046792,1.367623 0.591575,0.591579 1.047447,1.273841 1.367614,2.046787 0.32016,0.772938 0.48024,1.577724 0.480248,2.414352 z"
         transform="matrix(0.60354007,0,0,0.60319996,335.38429,724.22043)" />
      <path
         id="path162"
         style="opacity:1;fill:#e8963c;fill-opacity:1;fill-rule:nonzero;stroke:none"
         d="m 99.927002,152.06599 c -2.375999,0 -4.305,-1.92599 -4.305,-4.307 V 92.898987 c 0,-2.380997 1.928001,-4.307999 4.305,-4.307999 2.377998,0 4.306998,1.927002 4.306998,4.307999 v 54.860003 c -10e-4,2.38202 -1.929,4.307 -4.306998,4.307 z"
         transform="matrix(0.60354007,0,0,0.60319996,335.38429,724.22043)" />
      <path
         id="path164"
         style="opacity:1;fill:#e8963c;fill-opacity:1;fill-rule:nonzero;stroke:none"
         d="M 132.873,152.06599 H 65.022003 c -2.377998,0 -4.306999,-1.92599 -4.306999,-4.307 0,-2.38102 1.928001,-4.30701 4.306999,-4.30701 H 132.873 c 2.37801,0 4.30701,1.92599 4.30701,4.30701 0,2.38101 -1.929,4.307 -4.30701,4.307 z"
         transform="matrix(0.60354007,0,0,0.60319996,335.38429,724.22043)" />
      <path
         id="path166"
         style="opacity:1;fill:#e8963c;fill-opacity:1;fill-rule:nonzero;stroke:none"
         d="M 99.927002,97.206001 C 83.203003,97.206001 69.153,91.910004 59.300003,81.900002 47.279999,69.676003 41.388,50.772999 41.796001,25.708 42.105003,6.7080002 43.381001,2.0669994 48.298,2.0669994 h 103.415 c 4.92399,0 6.168,4.6459999 6.34399,23.6730006 0.239,25.92 -5.569,45.040998 -17.257,56.837003 -9.61598,9.709 -23.36999,14.628998 -40.872988,14.628998 z M 51.300999,10.689 c -0.332001,2.172 -0.754002,6.561999 -0.894001,15.162 -0.370999,22.670999 4.687999,39.495001 15.031997,50.006002 8.317002,8.450997 19.917,12.734001 34.487,12.734001 15.333005,0 26.701005,-3.948997 34.757995,-12.074997 10.009,-10.104003 14.977,-27.159 14.761,-50.698001 -0.079,-8.549 -0.462,-12.939 -0.774,-15.129 H 51.300999 Z"
         transform="matrix(0.60354007,0,0,0.60319996,335.38429,724.22043)" />
      <path
         id="path168"
         style="opacity:1;fill:#e8963c;fill-opacity:1;fill-rule:nonzero;stroke:none"
         d="M 153.666,36.470001 H 46.160999 c -2.377998,0 -4.306999,-1.925998 -4.306999,-4.306999 0,-2.381001 1.928001,-4.306999 4.306999,-4.306999 H 153.666 c 2.379,0 4.308,1.926 4.308,4.306999 0,2.380997 -1.929,4.306999 -4.308,4.306999 z"
         transform="matrix(0.60354007,0,0,0.60319996,335.38429,724.22043)" />
    </g>
  </g>
</svg>
