<?xml version="1.0" encoding="UTF-8" standalone="no"?>
<svg
   xmlns:dc="http://purl.org/dc/elements/1.1/"
   xmlns:cc="http://creativecommons.org/ns#"
   xmlns:rdf="http://www.w3.org/1999/02/22-rdf-syntax-ns#"
   xmlns:svg="http://www.w3.org/2000/svg"
   xmlns="http://www.w3.org/2000/svg"
   xmlns:sodipodi="http://sodipodi.sourceforge.net/DTD/sodipodi-0.dtd"
   xmlns:inkscape="http://www.inkscape.org/namespaces/inkscape"
   sodipodi:docname="rocks.svg"
   inkscape:version="1.0 (4035a4f, 2020-05-01)"
   id="svg435"
   version="1.1"
   viewBox="0 0 13.124486 30.543499"
   height="30.543499mm"
   width="13.124485mm">
  <defs
     id="defs429" />
  <sodipodi:namedview
     inkscape:window-maximized="0"
     inkscape:window-y="26"
     inkscape:window-x="0"
     inkscape:window-height="874"
     inkscape:window-width="1440"
     showgrid="false"
     inkscape:document-rotation="0"
     inkscape:current-layer="layer1"
     inkscape:document-units="mm"
     inkscape:cy="150.11439"
     inkscape:cx="45.047399"
     inkscape:zoom="2.0337149"
     inkscape:pageshadow="2"
     inkscape:pageopacity="0.0"
     borderopacity="1.0"
     bordercolor="#666666"
     pagecolor="#ffffff"
     id="base" />
  <metadata
     id="metadata432">
    <rdf:RDF>
      <cc:Work
         rdf:about="">
        <dc:format>image/svg+xml</dc:format>
        <dc:type
           rdf:resource="http://purl.org/dc/dcmitype/StillImage" />
        <dc:title></dc:title>
      </cc:Work>
    </rdf:RDF>
  </metadata>
  <g
     transform="translate(-73.720702,-84.273937)"
     id="layer1"
     inkscape:groupmode="layer"
     inkscape:label="Layer 1">
    <g
       transform="matrix(0.26458333,0,0,0.26458333,-0.11863907,-100.9137)"
       id="g401">
      <path
         id="path118"
         style="opacity:1;fill:#e8963c;fill-opacity:1;fill-rule:nonzero;stroke:none"
         d="m 93.887001,69.346001 c -0.790001,0 -1.552002,-0.292 -2.137001,-0.825997 L 79.633003,57.515999 C 78.332001,56.333 78.237,54.324997 79.415001,53.022999 L 90.408005,40.907997 c 0.565002,-0.624 1.357002,-1 2.202003,-1.042 0.837998,-0.062 1.667,0.259999 2.291001,0.826001 l 12.111001,11.005001 c 1.298,1.179 1.394,3.187 0.216,4.488998 L 96.242996,68.301003 c -0.569,0.624 -1.361,1 -2.202003,1.041999 -0.05299,0.003 -0.103997,0.003 -0.153992,0.003 z m -7.626999,-14.404 7.409996,6.730999 6.714002,-7.406002 -7.403005,-6.730999 z"
         transform="matrix(0.76836688,0,0,0.76959998,229.70949,717.67415)" />
      <path
         id="path120"
         style="opacity:1;fill:#e8963c;fill-opacity:1;fill-rule:nonzero;stroke:none"
         d="m 101.206,89.654999 c -0.771,0 -1.514998,-0.277001 -2.095999,-0.788002 C 98.473,88.307999 98.084999,87.522995 98.031998,86.676994 l -1.043999,-16.388 c -0.111,-1.748001 1.211998,-3.251999 2.956001,-3.376 l 16.272,-1.107002 c 0.879,-0.024 1.679,0.225998 2.31301,0.780998 0.636,0.556 1.024,1.344002 1.077,2.190003 l 1.044,16.395996 c 0.111,1.748001 -1.212,3.255997 -2.959,3.375999 l -16.272,1.099999 c -0.071,0.003 -0.14201,0.006 -0.21301,0.006 z m 2.332,-16.611 0.639,10.044998 9.925,-0.675003 -0.64099,-10.044998 z"
         transform="matrix(0.76836688,0,0,0.76959998,229.70949,717.67415)" />
      <path
         id="path122"
         style="opacity:1;fill:#e8963c;fill-opacity:1;fill-rule:nonzero;stroke:none"
         d="m 117.738,126.933 h -0.065 l -36.626003,-0.192 c -5.998001,-0.03 -10.854004,-4.935 -10.828003,-10.936 l 0.198998,-95.166 c 0.034,-5.98 4.917999,-10.8360005 10.883003,-10.8360005 L 117.987,9.9949999 c 2.91,0.017 5.637,1.1620001 7.679,3.2280001 2.043,2.069999 3.158,4.809 3.14301,7.715 l -0.198,95.15799 C 128.58501,122.076 123.707,126.933 117.738,126.933 Z M 81.325996,16.164 c -2.506996,0 -4.533996,2.014999 -4.549003,4.5 l -0.198998,95.162 c -0.012,2.502 2.008004,4.544 4.5,4.559 l 36.629005,0.18801 0.031,3.18 v -3.18 c 2.478,0 4.502,-2.02 4.512,-4.49701 l 0.199,-95.161999 c 0.005,-1.219999 -0.458,-2.361 -1.305,-3.218 -0.852,-0.860001 -1.98001,-1.333 -3.18801,-1.34 z"
         transform="matrix(0.76836688,0,0,0.76959998,229.70949,717.67415)" />
      <path
         id="path124"
         style="opacity:1;fill:#e8963c;fill-opacity:1;fill-rule:nonzero;stroke:none"
         d="m 125.467,49.077999 h -16.651 c -1.75599,0 -3.179,-1.422001 -3.179,-3.18 0,-1.758 1.423,-3.181 3.179,-3.181 h 16.651 c 1.75801,0 3.18,1.422001 3.18,3.181 0,1.758999 -1.422,3.18 -3.18,3.18 z"
         transform="matrix(0.76836688,0,0,0.76959998,229.70949,717.67415)" />
      <path
         id="path126"
         style="opacity:1;fill:#e8963c;fill-opacity:1;fill-rule:nonzero;stroke:none"
         d="m 79.105003,48.196999 h -5.608001 c -1.755997,0 -3.179001,-1.422001 -3.179001,-3.177002 0,-1.758 1.421997,-3.180001 3.179001,-3.180001 h 5.608001 c 1.758004,0 3.181,1.422001 3.181,3.180001 0,1.755005 -1.422005,3.177002 -3.181,3.177002 z"
         transform="matrix(0.76836688,0,0,0.76959998,229.70949,717.67415)" />
      <path
         id="path128"
         style="opacity:1;fill:#e8963c;fill-opacity:1;fill-rule:nonzero;stroke:none"
         d="m 76.304001,1.036 c -6.647003,0 -12.053002,-5.404 -12.053002,-12.05 0,-6.645 5.405999,-12.053001 12.053002,-12.053001 6.643997,0 12.050003,5.408001 12.050003,12.053 C 88.353996,-4.369 82.946999,1.036 76.304001,1.036 Z m 0,-17.743001 c -3.139,0 -5.694,2.553 -5.694,5.692 0,3.1389996 2.555,5.6889998 5.694,5.6889998 3.138,0 5.689003,-2.5500002 5.689003,-5.6889998 0,-3.139 -2.552002,-5.692 -5.689003,-5.692 z"
         transform="matrix(0.76836688,0,0,0.76959998,229.70949,717.67415)" />
      <path
         id="path130"
         style="opacity:1;fill:#e8963c;fill-opacity:1;fill-rule:nonzero;stroke:none"
         d="m 87.560997,33.432999 c -1.408997,0 -2.700996,-0.945999 -3.073997,-2.375 L 76.028,-1.339 c -0.444,-1.7030001 0.573997,-3.438 2.274002,-3.8830001 1.695,-0.4320002 3.438003,0.5760002 3.880997,2.276 l 8.458,32.3970001 c 0.444,1.700001 -0.573998,3.437 -2.272003,3.879002 -0.269997,0.068 -0.540993,0.102997 -0.807999,0.102997 z"
         transform="matrix(0.76836688,0,0,0.76959998,229.70949,717.67415)" />
    </g>
  </g>
</svg>
